<?xml version="1.0" encoding="UTF-8"?>
<svg width="136px" height="23px" viewBox="0 0 136 23" version="1.1" xmlns="http://www.w3.org/2000/svg" xmlns:xlink="http://www.w3.org/1999/xlink">
    <title>Logo--desktop</title>
    <g id="Logo--desktop" stroke="none" stroke-width="0" fill="currentColor" fill-rule="evenodd">
        <path d="M10.0833352,17.4594741 L10.6424982,17.4594741 C11.7583752,17.4594741 12.3754952,17.4300874 12.8750686,17.3125407 C13.7566686,17.0774474 14.3737886,16.2840074 14.3737886,15.3142474 C14.3737886,14.6089674 14.0505352,13.9624607 13.5215752,13.6098207 C12.9926152,13.3159541 12.4930419,13.1984074 10.8767752,13.1984074 L10.0833352,13.1984074 L10.0833352,17.4594741 Z M10.0833352,9.52589037 L11.2000286,9.52589037 C12.4342686,9.52589037 12.4930419,9.52589037 12.9926152,9.3201837 C13.2277086,9.23120741 13.4334152,9.11447704 13.6097352,8.90877037 C13.9623752,8.5267437 14.1386952,7.9977837 14.1386952,7.43943704 C14.1386952,6.1464237 13.3452552,5.49991704 11.7877619,5.49991704 L11.6702152,5.49991704 L10.7886152,5.5293037 L10.0833352,5.49991704 L10.0833352,9.52589037 Z M0.269821167,0.9458 L7.79199154,1.00457333 L13.7860552,0.9458 C16.4300389,0.9458 17.6936656,1.15150667 19.1042256,1.73924 C20.9849723,2.5318637 22.2192123,4.35465333 22.2192123,6.29335704 C22.2192123,7.23373037 21.953916,8.14471704 21.4551589,8.90877037 C20.6617189,10.0834207 19.9270523,10.5544237 18.0169189,10.9952237 C20.3090789,11.6123437 21.1906789,12.1413037 22.1310523,13.2865674 C22.7187856,13.9926637 23.0714256,15.0799704 23.0714256,16.1076874 C23.0714256,18.1353674 21.7784123,20.1034578 19.8976656,20.9850578 C18.3401723,21.7197244 16.3418789,22.0723644 13.7566686,22.0723644 C13.0220019,22.0723644 10.9061619,22.0429778 7.3805782,22.0135911 C5.7936982,21.9842044 3.44358117,22.0135911 0.269821167,22.0723644 L0.269821167,17.1941778 L2.0036345,17.2537674 L2.0036345,5.73501037 L0.269821167,5.7946 L0.269821167,0.9458 L0.269821167,0.9458 Z" id="B"></path>
        <path d="M33.403717,9.61405037 L34.9016207,9.61405037 C36.6354341,9.61405037 37.4876474,8.90877037 37.4876474,7.52841333 C37.4876474,6.2354 36.6942074,5.58889333 35.0191674,5.58889333 L33.403717,5.58889333 L33.403717,9.61405037 Z M23.56,17.1941778 L25.3232,17.2537674 L25.3232,5.73501037 L23.56,5.7946 L23.56,0.9458 L29.6422237,1.00457333 L37.0174607,0.9458 C40.5144741,0.9458 41.9242178,1.26986963 43.5698711,2.41513333 C45.0685911,3.44366667 45.9501911,5.23625333 45.9501911,7.14557037 C45.9501911,7.88023704 45.8326444,8.64429037 45.5387778,9.29079704 C45.0098178,10.7005407 44.4514711,11.2597037 42.8058178,12.1992607 L45.8612148,17.2537674 L47.2717748,17.1941778 L47.2717748,22.0723644 C45.5387778,22.0429778 44.2457644,22.0135911 43.3641644,22.0135911 C42.4825644,22.0135911 41.1601644,22.0429778 39.3683941,22.0723644 L35.5481274,13.4922741 L33.3735141,13.4922741 L33.3735141,17.2537674 L35.0485541,17.1941778 L35.0485541,22.0723644 C32.5808904,22.0429778 30.7295304,22.0135911 29.4952904,22.0135911 C28.1728904,22.0135911 26.2048,22.0429778 23.56,22.0723644 L23.56,17.1941778 L23.56,17.1941778 Z" id="r"></path>
        <path d="M56.6261012,11.9062104 L60.3280049,11.9062104 L58.9468315,6.82231704 L58.6823515,5.67623704 L58.4766449,4.58974667 C58.2121649,5.9701037 58.1533915,6.29335704 58.0652315,6.64681333 L56.6261012,11.9062104 Z M48.3978345,17.1941778 L50.0443041,17.2537674 L53.3347945,5.73501037 L51.5715945,5.7946 L51.5715945,0.9458 C55.0392212,0.975186667 57.5950449,1.00457333 59.3582449,1.00457333 C61.2683782,1.00457333 64.1180686,0.975186667 67.9375189,0.9458 L67.9375189,5.7946 L66.1457486,5.73501037 L69.4950123,17.2537674 L71.1406656,17.1941778 L71.1406656,22.0723644 C68.7317752,22.0429778 66.9391886,22.0135911 65.7343352,22.0135911 C64.4707086,22.0135911 62.5613915,22.0429778 60.0341382,22.0723644 L60.0341382,17.1941778 L61.7385649,17.2537674 L61.2683782,15.1673141 L55.7445012,15.1673141 L55.2155412,17.2537674 L56.9485382,17.1941778 L56.9485382,22.0723644 C55.0098345,22.0429778 53.5698878,22.0135911 52.6295145,22.0135911 C51.6597545,22.0135911 50.2785812,22.0429778 48.3978345,22.0723644 L48.3978345,17.1941778 L48.3978345,17.1941778 Z" id="a"></path>
        <path d="M82.0813343,17.4594741 L82.639681,17.4594741 C83.7563743,17.4594741 84.3734943,17.4300874 84.8730677,17.3125407 C85.7546677,17.0774474 86.3717877,16.2840074 86.3717877,15.3142474 C86.3717877,14.6089674 86.0485343,13.9624607 85.5195743,13.6098207 C84.9906143,13.3159541 84.491041,13.1984074 82.8747743,13.1984074 L82.0813343,13.1984074 L82.0813343,17.4594741 Z M82.0813343,9.52589037 L83.1980277,9.52589037 C84.4322677,9.52589037 84.491041,9.52589037 84.9906143,9.3201837 C85.2257077,9.23120741 85.4314143,9.11447704 85.606918,8.90877037 C85.9603743,8.5267437 86.135878,7.9977837 86.135878,7.43943704 C86.135878,6.1464237 85.3432543,5.49991704 83.785761,5.49991704 L83.6682143,5.49991704 L82.7866143,5.5293037 L82.0813343,5.49991704 L82.0813343,9.52589037 Z M72.2678203,0.9458 L79.7891743,1.00457333 L85.7840543,0.9458 C88.4288543,0.9458 89.6916647,1.15150667 91.1022247,1.73924 C92.9829714,2.5318637 94.2163951,4.35465333 94.2163951,6.29335704 C94.2163951,7.23373037 93.9519151,8.14471704 93.453158,8.90877037 C92.6589017,10.0834207 91.9250514,10.5544237 90.014918,10.9952237 C92.307078,11.6123437 93.188678,12.1413037 94.1282351,13.2865674 C94.7167847,13.9926637 95.0686084,15.0799704 95.0686084,16.1076874 C95.0686084,18.1353674 93.7755951,20.1034578 91.8956647,20.9850578 C90.3373551,21.7197244 88.339878,22.0723644 85.7546677,22.0723644 C85.020001,22.0723644 82.904161,22.0429778 79.3785773,22.0135911 C77.7916973,21.9842044 75.440764,22.0135911 72.2678203,22.0723644 L72.2678203,17.1941778 L74.0008173,17.2537674 L74.0008173,5.73501037 L72.2678203,5.7946 L72.2678203,0.9458 L72.2678203,0.9458 Z" id="b"></path>
        <path d="M95.5037967,0.9458 C97.9722767,0.975186667 99.8522071,1.00457333 101.086447,1.00457333 C102.2913,1.00457333 104.141844,0.975186667 106.551551,0.9458 L106.551551,5.7946 L105.111604,5.73501037 L105.111604,14.6089674 C105.111604,15.8432074 105.170377,16.2546207 105.434857,16.6954207 C105.758111,17.2537674 106.580937,17.5476341 107.550697,17.5476341 C108.460868,17.5476341 109.255124,17.2243807 109.606948,16.6660341 C109.901631,16.2546207 109.959588,15.8432074 109.959588,14.6089674 L109.959588,5.73501037 L108.490254,5.7946 L108.490254,0.9458 C110.283657,0.975186667 111.605241,1.00457333 112.486841,1.00457333 C113.339054,1.00457333 114.543092,0.975186667 116.160174,0.9458 L116.160174,5.7946 L114.690841,5.73501037 L114.690841,14.1093941 C114.690841,17.0186741 113.985561,18.7231007 112.251748,20.2210044 C110.548137,21.6609511 108.344137,22.4250044 105.816884,22.4250044 C103.319017,22.4250044 101.115834,21.6609511 99.4114071,20.2210044 C97.7069804,18.7231007 97.0017004,17.0186741 97.0017004,14.1093941 L97.0017004,5.73501037 L95.5037967,5.7946 L95.5037967,0.9458" id="u"></path>
        <path d="M129.957887,0.9458 L134.776484,0.9458 C134.717711,2.85593333 134.688324,3.76692 134.688324,4.79545333 L134.688324,7.05741037 L129.928501,7.08761333 C129.517087,5.2648237 128.606101,4.41342667 127.166154,4.41342667 C126.078847,4.41342667 125.168677,5.17748 125.168677,6.05908 C125.168677,6.3227437 125.256021,6.61661037 125.433157,6.82231704 C125.638864,7.08761333 125.84457,7.29332 126.137621,7.43943704 C126.313941,7.52841333 126.578421,7.6451437 126.960447,7.88023704 L128.253461,8.46797037 C128.694261,8.7030637 129.193834,8.90877037 129.752181,9.20263704 C131.691701,10.0834207 131.868021,10.172397 132.661461,10.6425837 C134.805871,11.8768237 135.893178,13.6098207 135.893178,15.9607541 C135.893178,19.8977511 132.778191,22.5131644 128.047754,22.5131644 C127.136767,22.5131644 126.19721,22.4250044 125.31561,22.1899111 C124.110757,21.9254311 123.580981,21.6903378 122.435717,20.8087378 L122.435717,22.0723644 L117.587733,22.0723644 C117.61712,20.1622311 117.675893,19.2512444 117.675893,18.2520978 C117.675893,17.5476341 117.675893,16.5476711 117.61712,15.1967007 L122.524693,15.1967007 C122.700197,16.1370741 122.876517,16.4897141 123.346704,16.9884711 C123.963824,17.6349778 124.933584,18.0463911 125.902527,18.0463911 C126.813514,18.0463911 127.548181,17.4300874 127.548181,16.6660341 C127.548181,15.8432074 126.754741,15.1967007 124.34585,14.1387807 C123.580981,13.786957 123.082224,13.5518637 122.905904,13.4628874 L121.377797,12.6996504 C120.61456,12.3176237 119.938667,11.9641674 119.467664,11.6123437 C117.910987,10.6425837 117,8.84999704 117,6.8517037 C117,3.09102667 119.908464,0.505 124.227487,0.505 C125.021744,0.505 125.815184,0.563773333 126.63801,0.740093333 C127.959594,0.9458 128.517941,1.15150667 129.957887,1.79801333 L129.957887,0.9458" id="s"></path>
    </g>
</svg>
